<?xml version="1.0" encoding="iso-8859-1"?>
<!-- Generator: Adobe Illustrator 19.0.0, SVG Export Plug-In . SVG Version: 6.00 Build 0)  -->
<svg version="1.1" id="Capa_1" xmlns="http://www.w3.org/2000/svg" xmlns:xlink="http://www.w3.org/1999/xlink" x="0px" y="0px"
	 viewBox="0 0 512 512" style="enable-background:new 0 0 512 512;" xml:space="preserve">
<g>
	<g>
		<path d="M416,298.667h-21.333c-5.867,0-10.667,4.8-10.667,10.667v21.333c0,5.867,4.8,10.667,10.667,10.667H416
			c5.867,0,10.667-4.8,10.667-10.667v-21.333C426.667,303.467,421.867,298.667,416,298.667z"/>
	</g>
</g>
<g>
	<g>
		<path d="M458.667,85.333H53.333C23.936,85.333,0,109.269,0,138.667v10.667h512v-10.667C512,109.269,488.085,85.333,458.667,85.333
			z"/>
	</g>
</g>
<g>
	<g>
		<rect y="170.667" width="512" height="42.667"/>
	</g>
</g>
<g>
	<g>
		<path d="M0,234.667v138.667c0,29.419,23.936,53.333,53.333,53.333h405.333c29.419,0,53.333-23.915,53.333-53.333V234.667H0z
			 M202.667,362.667h-128C68.779,362.667,64,357.888,64,352c0-5.888,4.779-10.667,10.667-10.667h128
			c5.888,0,10.667,4.779,10.667,10.667C213.333,357.888,208.555,362.667,202.667,362.667z M202.667,320h-128
			C68.779,320,64,315.221,64,309.333s4.779-10.667,10.667-10.667h128c5.888,0,10.667,4.779,10.667,10.667S208.555,320,202.667,320z
			 M448,330.667c0,17.643-14.357,32-32,32h-21.333c-17.643,0-32-14.357-32-32v-21.333c0-17.643,14.357-32,32-32H416
			c17.643,0,32,14.357,32,32V330.667z"/>
	</g>
</g>
<g>
</g>
<g>
</g>
<g>
</g>
<g>
</g>
<g>
</g>
<g>
</g>
<g>
</g>
<g>
</g>
<g>
</g>
<g>
</g>
<g>
</g>
<g>
</g>
<g>
</g>
<g>
</g>
<g>
</g>
</svg>
