<?xml version="1.0" encoding="iso-8859-1"?>
<!-- Generator: Adobe Illustrator 19.0.0, SVG Export Plug-In . SVG Version: 6.00 Build 0)  -->
<svg version="1.1" id="Capa_1" xmlns="http://www.w3.org/2000/svg" xmlns:xlink="http://www.w3.org/1999/xlink" x="0px" y="0px"
	 viewBox="0 0 512 512" style="enable-background:new 0 0 512 512;" xml:space="preserve">
<g>
	<g>
		<path d="M256,0c-76.459,0-138.667,62.208-138.667,138.667c0,64.853,44.352,120.171,106.667,134.805v67.861h-32
			c-5.888,0-10.667,4.779-10.667,10.667v42.667c0,5.888,4.779,10.667,10.667,10.667h32v21.333h-32
			c-5.888,0-10.667,4.779-10.667,10.667V480c0,5.888,4.779,10.667,10.667,10.667h33.813C230.229,503.083,242.091,512,256,512
			c17.643,0,32-14.357,32-32V273.472c62.336-14.656,106.667-69.973,106.667-134.805C394.667,62.208,332.459,0,256,0z M256,149.333
			c-29.397,0-53.333-23.936-53.333-53.333S226.603,42.667,256,42.667S309.333,66.603,309.333,96S285.397,149.333,256,149.333z"/>
	</g>
</g>
<g>
</g>
<g>
</g>
<g>
</g>
<g>
</g>
<g>
</g>
<g>
</g>
<g>
</g>
<g>
</g>
<g>
</g>
<g>
</g>
<g>
</g>
<g>
</g>
<g>
</g>
<g>
</g>
<g>
</g>
</svg>
